<?xml version="1.0" encoding="utf-8"?>
<!-- Generator: Adobe Illustrator 28.1.0, SVG Export Plug-In . SVG Version: 6.00 Build 0)  -->
<svg version="1.1" xmlns="http://www.w3.org/2000/svg" xmlns:xlink="http://www.w3.org/1999/xlink" x="0px" y="0px"
	 viewBox="0 0 198 198" style="enable-background:new 0 0 198 198;" xml:space="preserve">
<style type="text/css">
	.st0{fill:#F16028;}
</style>
<g id="Layer_4">
</g>
<g id="Layer_2">
	<g>
		<g>
			<g>
				<g>
					<path d="M107.43,104.73l-9.46-15.38c-0.21-0.34-0.58-0.55-0.98-0.55c-0.4,0-0.76,0.2-0.97,0.54l-9.54,15.2
						c-0.22,0.35-0.23,0.8-0.04,1.16c0.2,0.37,0.58,0.59,1,0.6l19.01,0.18c0.41,0,0.8-0.22,1-0.58
						C107.65,105.53,107.64,105.08,107.43,104.73z M106.18,105.18L87.72,105l9.27-14.76L106.18,105.18z"/>
				</g>
			</g>
		</g>
		<g>
			<g>
				<g>
					<path class="st0" d="M99.35,100.24H97.6v1.81h-1.31v-1.81h-1.75V99h1.75v-1.81h1.31V99h1.75V100.24z"/>
				</g>
			</g>
		</g>
		<path d="M96.99,13.62c47.42,0,86,38.58,86,86s-38.58,86-86,86s-86-38.58-86-86S49.57,13.62,96.99,13.62 M96.99,9.62
			c-49.71,0-90,40.29-90,90s40.29,90,90,90c49.71,0,90-40.29,90-90S146.7,9.62,96.99,9.62L96.99,9.62z"/>
		<path d="M96.99,30.95c37.86,0,68.67,30.8,68.67,68.67s-30.8,68.67-68.67,68.67s-68.67-30.8-68.67-68.67S59.13,30.95,96.99,30.95
			 M96.99,28.95c-39.03,0-70.67,31.64-70.67,70.67s31.64,70.67,70.67,70.67c39.03,0,70.67-31.64,70.67-70.67
			S136.02,28.95,96.99,28.95L96.99,28.95z"/>
		<path class="st0" d="M96.99,35.77c35.21,0,63.85,28.64,63.85,63.85s-28.64,63.85-63.85,63.85s-63.85-28.64-63.85-63.85
			S61.79,35.77,96.99,35.77 M96.99,34.77c-35.81,0-64.85,29.03-64.85,64.85c0,35.81,29.03,64.85,64.85,64.85
			c35.81,0,64.85-29.03,64.85-64.85C161.84,63.81,132.81,34.77,96.99,34.77L96.99,34.77z"/>
		<path class="st0" d="M96.99,84.43c8.37,0,15.19,6.81,15.19,15.19c0,8.37-6.81,15.19-15.19,15.19c-8.37,0-15.19-6.81-15.19-15.19
			C81.81,91.25,88.62,84.43,96.99,84.43 M96.99,83.43c-8.94,0-16.19,7.25-16.19,16.19s7.25,16.19,16.19,16.19
			s16.19-7.25,16.19-16.19S105.93,83.43,96.99,83.43L96.99,83.43z"/>
		<path class="st0" d="M96.99,39.56c33.12,0,60.06,26.94,60.06,60.06s-26.94,60.06-60.06,60.06c-33.12,0-60.06-26.94-60.06-60.06
			S63.88,39.56,96.99,39.56 M96.99,38.56c-33.72,0-61.06,27.34-61.06,61.06c0,33.72,27.34,61.06,61.06,61.06
			c33.72,0,61.06-27.34,61.06-61.06C158.05,65.9,130.71,38.56,96.99,38.56L96.99,38.56z"/>
		<path class="st0" d="M96.99,43.22c31.1,0,56.4,25.3,56.4,56.4s-25.3,56.4-56.4,56.4s-56.4-25.3-56.4-56.4S65.89,43.22,96.99,43.22
			 M96.99,42.22c-31.7,0-57.4,25.7-57.4,57.4s25.7,57.4,57.4,57.4c31.7,0,57.4-25.7,57.4-57.4S128.7,42.22,96.99,42.22L96.99,42.22z
			"/>
		<path class="st0" d="M96.99,46.96c29.04,0,52.66,23.62,52.66,52.66s-23.62,52.66-52.66,52.66s-52.66-23.62-52.66-52.66
			S67.96,46.96,96.99,46.96 M96.99,45.96c-29.64,0-53.66,24.02-53.66,53.66s24.02,53.66,53.66,53.66s53.66-24.02,53.66-53.66
			S126.63,45.96,96.99,45.96L96.99,45.96z"/>
		<path class="st0" d="M96.99,50.7c26.97,0,48.92,21.94,48.92,48.92s-21.94,48.92-48.92,48.92s-48.92-21.94-48.92-48.92
			S70.02,50.7,96.99,50.7 M96.99,49.7c-27.57,0-49.92,22.35-49.92,49.92s22.35,49.92,49.92,49.92s49.92-22.35,49.92-49.92
			S124.56,49.7,96.99,49.7L96.99,49.7z"/>
		<path class="st0" d="M96.99,54.45c24.91,0,45.17,20.26,45.17,45.17c0,24.91-20.26,45.17-45.17,45.17s-45.17-20.26-45.17-45.17
			C51.82,74.71,72.08,54.45,96.99,54.45 M96.99,53.45c-25.5,0-46.17,20.67-46.17,46.17s20.67,46.17,46.17,46.17
			c25.5,0,46.17-20.67,46.17-46.17S122.49,53.45,96.99,53.45L96.99,53.45z"/>
		<path class="st0" d="M96.99,58.19c22.85,0,41.43,18.59,41.43,41.43c0,22.84-18.59,41.43-41.43,41.43s-41.43-18.59-41.43-41.43
			C55.56,76.78,74.15,58.19,96.99,58.19 M96.99,57.19c-23.43,0-42.43,19-42.43,42.43c0,23.43,19,42.43,42.43,42.43
			s42.43-19,42.43-42.43C139.42,76.19,120.43,57.19,96.99,57.19L96.99,57.19z"/>
		<path class="st0" d="M96.99,61.96c20.77,0,37.66,16.9,37.66,37.66s-16.9,37.66-37.66,37.66s-37.66-16.9-37.66-37.66
			S76.23,61.96,96.99,61.96 M96.99,60.96c-21.35,0-38.66,17.31-38.66,38.66c0,21.35,17.31,38.66,38.66,38.66
			s38.66-17.31,38.66-38.66C135.66,78.27,118.35,60.96,96.99,60.96L96.99,60.96z"/>
		<path class="st0" d="M96.99,65.68c18.72,0,33.95,15.23,33.95,33.95s-15.23,33.95-33.95,33.95s-33.95-15.23-33.95-33.95
			S78.28,65.68,96.99,65.68 M96.99,64.68c-19.3,0-34.95,15.65-34.95,34.95c0,19.3,15.65,34.95,34.95,34.95s34.95-15.65,34.95-34.95
			C131.94,80.32,116.29,64.68,96.99,64.68L96.99,64.68z"/>
		<path class="st0" d="M96.99,69.43c16.65,0,30.19,13.54,30.19,30.19c0,16.65-13.54,30.19-30.19,30.19S66.8,116.27,66.8,99.62
			C66.8,82.97,80.34,69.43,96.99,69.43 M96.99,68.43c-17.23,0-31.19,13.97-31.19,31.19s13.97,31.19,31.19,31.19
			c17.23,0,31.19-13.97,31.19-31.19S114.22,68.43,96.99,68.43L96.99,68.43z"/>
		<path class="st0" d="M96.99,73.17c14.58,0,26.45,11.86,26.45,26.45s-11.86,26.45-26.45,26.45S70.55,114.2,70.55,99.62
			S82.41,73.17,96.99,73.17 M96.99,72.17c-15.16,0-27.45,12.29-27.45,27.45c0,15.16,12.29,27.45,27.45,27.45
			s27.45-12.29,27.45-27.45C124.44,84.46,112.15,72.17,96.99,72.17L96.99,72.17z"/>
		<path class="st0" d="M96.99,76.9c12.53,0,22.72,10.19,22.72,22.72s-10.19,22.72-22.72,22.72s-22.72-10.19-22.72-22.72
			S84.46,76.9,96.99,76.9 M96.99,75.9c-13.1,0-23.72,10.62-23.72,23.72s10.62,23.72,23.72,23.72c13.1,0,23.72-10.62,23.72-23.72
			S110.09,75.9,96.99,75.9L96.99,75.9z"/>
		<path class="st0" d="M96.99,80.68c10.44,0,18.94,8.5,18.94,18.94s-8.5,18.94-18.94,18.94s-18.94-8.5-18.94-18.94
			S86.55,80.68,96.99,80.68 M96.99,79.68c-11.01,0-19.94,8.93-19.94,19.94c0,11.01,8.93,19.94,19.94,19.94s19.94-8.93,19.94-19.94
			C116.93,88.61,108,79.68,96.99,79.68L96.99,79.68z"/>
		<path d="M149.58,159.29l-1.32-1.5c16.69-14.72,26.27-35.92,26.27-58.17c0-25.8-12.78-49.83-34.18-64.29l1.12-1.66
			c21.96,14.83,35.06,39.49,35.06,65.95C176.52,122.43,166.7,144.18,149.58,159.29z"/>
		<path d="M44.15,159.05c-16.96-15.09-26.68-36.75-26.68-59.43c0-26.38,13.04-50.98,34.89-65.83l1.12,1.65
			c-21.3,14.47-34.01,38.46-34.01,64.17c0,22.11,9.48,43.23,26.01,57.94L44.15,159.05z"/>
		<g>
			<path d="M65.99,31.31l-1.17,0.59l-4.22-2.37c-0.28-0.16-0.66-0.38-0.83-0.51c0.12,0.24,0.56,1.06,0.74,1.43l1.46,2.89L60.67,34
				l-3.31-6.57l1.26-0.63l4.08,2.3c0.28,0.16,0.66,0.38,0.83,0.51c-0.12-0.24-0.56-1.06-0.74-1.43l-1.4-2.78l1.29-0.65L65.99,31.31z
				"/>
			<path d="M71.38,29.18L70,29.69l-2.58-6.89l1.38-0.52L71.38,29.18z"/>
			<path d="M79.38,20.73l-1.16,0.95c-0.38-0.42-0.86-0.6-1.5-0.43c-1.07,0.28-1.43,1.37-1.09,2.69c0.33,1.28,1.21,2.09,2.28,1.82
				c0.64-0.17,0.95-0.54,1.16-1.27l1.38,0.4c-0.22,1.13-0.92,1.96-2.21,2.29c-1.86,0.49-3.48-0.61-4.07-2.86
				c-0.57-2.17,0.34-4.01,2.2-4.49C77.71,19.48,78.69,19.92,79.38,20.73z"/>
			<path d="M89.76,24.99l-5.22,0.7l-0.97-7.29l5.07-0.67l0.19,1.43l-3.61,0.48l0.17,1.26l2.09-0.28l0.19,1.42l-2.09,0.28l0.24,1.76
				l3.76-0.5L89.76,24.99z"/>
			<path d="M107.35,17.88l-2.09,7.22l-1.44-0.11l-0.62-3.84c-0.07-0.45-0.14-1-0.16-1.28c-0.05,0.27-0.2,0.82-0.34,1.24l-1.21,3.7
				l-1.37-0.1l-0.98-7.45l1.53,0.12l0.37,3.62c0.04,0.36,0.08,0.91,0.09,1.22c0.08-0.3,0.23-0.84,0.34-1.19l1.13-3.51l1.28,0.1
				l0.6,3.64c0.06,0.36,0.13,0.92,0.16,1.22c0.05-0.3,0.18-0.85,0.27-1.19l0.91-3.53L107.35,17.88z"/>
			<path d="M116.99,23.5c-0.51,2.32-2.12,3.43-3.99,3.02c-1.88-0.41-2.86-2.07-2.36-4.39c0.51-2.32,2.12-3.43,4-3.02
				C116.51,19.52,117.5,21.18,116.99,23.5z M115.51,23.2c0.32-1.46-0.2-2.44-1.21-2.66c-1.01-0.22-1.85,0.45-2.17,1.9
				s0.2,2.44,1.2,2.66C114.34,25.32,115.19,24.66,115.51,23.2z"/>
			<path d="M125.4,30.19l-1.59-0.58l-0.34-2.94l-1.39-0.5l-0.9,2.49l-1.38-0.5l2.5-6.92l3.22,1.16c1.31,0.47,2.12,1.58,1.59,3.06
				c-0.38,1.04-1.06,1.53-2.06,1.56L125.4,30.19z M125.67,24.98c0.22-0.62-0.06-1.02-0.67-1.24l-1.81-0.65l-0.64,1.78l1.81,0.65
				C125,25.76,125.46,25.58,125.67,24.98z"/>
			<path d="M134.6,34.7l-1.57-0.81l-0.14-4.07l-1.68,0.69l-1,1.92l-1.31-0.68l3.39-6.53l1.31,0.68l-0.96,1.86
				c-0.12,0.24-0.44,0.83-0.56,1.03c0.17-0.1,0.57-0.27,0.86-0.4l2.98-1.28l1.58,0.82l-3.08,1.26L134.6,34.7z"/>
		</g>
		<g>
			<path d="M138.68,161.97l1.06-0.77l4.55,1.65c0.31,0.12,0.72,0.27,0.91,0.37c-0.16-0.22-0.72-0.96-0.96-1.29l-1.91-2.61l1.17-0.85
				l4.34,5.94l-1.14,0.83l-4.4-1.6c-0.31-0.12-0.72-0.27-0.91-0.37c0.16,0.22,0.72,0.95,0.96,1.29l1.83,2.51l-1.17,0.85
				L138.68,161.97z"/>
			<path d="M133.7,164.96l1.28-0.74l3.67,6.38l-1.28,0.74L133.7,164.96z"/>
			<path d="M127.19,174.62l0.99-1.13c0.45,0.35,0.95,0.45,1.55,0.18c1.01-0.45,1.19-1.59,0.63-2.84c-0.54-1.21-1.54-1.87-2.55-1.42
				c-0.6,0.27-0.84,0.69-0.93,1.44l-1.43-0.17c0.04-1.16,0.59-2.08,1.81-2.63c1.76-0.78,3.54,0.03,4.49,2.15
				c0.91,2.04,0.32,4.01-1.44,4.8C129.05,175.57,128,175.3,127.19,174.62z"/>
			<path d="M116.24,172.11l5.04-1.54l2.15,7.04l-4.89,1.49l-0.42-1.38l3.48-1.06l-0.37-1.22l-2.02,0.62l-0.42-1.37l2.02-0.62
				l-0.52-1.7l-3.63,1.11L116.24,172.11z"/>
			<path d="M106.63,174l1.67-0.29l1.74,2.39l1.46-0.25l-0.45-2.61l1.45-0.25l1.24,7.25l-3.38,0.58c-1.37,0.23-2.63-0.33-2.89-1.87
				c-0.19-1.09,0.16-1.85,1.02-2.37L106.63,174z M108.96,178.67c0.11,0.65,0.55,0.86,1.19,0.75l1.9-0.32l-0.32-1.87l-1.9,0.32
				C109.16,177.66,108.85,178.03,108.96,178.67z"/>
			<path d="M91.49,179.45c0.05-1.7,1.2-2.38,2.73-2.34l1.62,0.05l0.08-2.6l1.47,0.04l-0.21,7.35l-3.21-0.09
				C92.57,181.81,91.45,181.01,91.49,179.45z M93.01,179.46c-0.02,0.64,0.39,0.95,1.04,0.97l1.69,0.05l0.05-1.89l-1.71-0.05
				C93.4,178.51,93.03,178.82,93.01,179.46z"/>
			<path d="M82.76,173.25l5.21,0.8l-1.12,7.27l-5.05-0.78l0.22-1.42l3.6,0.55l0.19-1.26l-2.09-0.32l0.22-1.41l2.09,0.32l0.27-1.76
				l-3.75-0.58L82.76,173.25z"/>
			<path d="M72.49,174.42c0.65-2.29,2.32-3.3,4.16-2.78c1.85,0.52,2.73,2.23,2.09,4.52c-0.64,2.29-2.32,3.3-4.17,2.78
				C72.73,178.41,71.85,176.7,72.49,174.42z M73.96,174.81c-0.41,1.44,0.05,2.45,1.04,2.73c0.99,0.28,1.87-0.33,2.28-1.77
				s-0.05-2.45-1.04-2.73C75.25,172.76,74.36,173.37,73.96,174.81z"/>
			<path d="M62.69,171.93c0.67-1.56,1.99-1.77,3.39-1.17l1.49,0.64l1.03-2.4l1.35,0.58l-2.89,6.76l-2.96-1.26
				C62.83,174.52,62.08,173.37,62.69,171.93z M64.1,172.49c-0.25,0.59,0.02,1.02,0.62,1.28l1.55,0.67l0.74-1.74l-1.57-0.67
				C64.81,171.76,64.35,171.9,64.1,172.49z"/>
			<path d="M56.94,163.02l4.46,2.59l-3.7,6.36l-1.27-0.74l2.97-5.1l-3.19-1.85L56.94,163.02z"/>
			<path d="M49.7,157.82l4.21,3.17l-4.42,5.87l-4.08-3.07l0.87-1.15l2.9,2.19l0.76-1.01l-1.69-1.27l0.86-1.14l1.69,1.27l1.07-1.42
				l-3.03-2.28L49.7,157.82z"/>
		</g>
	</g>
</g>
</svg>
