<?xml version="1.0" encoding="utf-8"?>
<!-- Generator: Adobe Illustrator 28.1.0, SVG Export Plug-In . SVG Version: 6.00 Build 0)  -->
<svg version="1.1" id="Layer_1" xmlns="http://www.w3.org/2000/svg" xmlns:xlink="http://www.w3.org/1999/xlink" x="0px" y="0px"
	 viewBox="0 0 170.51 170.75" style="enable-background:new 0 0 170.51 170.75;" xml:space="preserve">
<style type="text/css">
	.st0{fill:#F16028;}
</style>
<g>
	<path class="st0" d="M85.32,99.4c-7.79,0-14.12-6.34-14.12-14.12s6.34-14.12,14.12-14.12s14.12,6.34,14.12,14.12
		S93.11,99.4,85.32,99.4z M85.32,72.15c-7.24,0-13.12,5.89-13.12,13.12S78.08,98.4,85.32,98.4s13.12-5.89,13.12-13.12
		S92.55,72.15,85.32,72.15z"/>
	<path class="st0" d="M85.32,103.02c-9.79,0-17.75-7.96-17.75-17.75c0-9.79,7.96-17.75,17.75-17.75s17.75,7.96,17.75,17.75
		C103.07,95.06,95.1,103.02,85.32,103.02z M85.32,68.53c-9.23,0-16.75,7.51-16.75,16.75c0,9.23,7.51,16.75,16.75,16.75
		s16.75-7.51,16.75-16.75C102.07,76.04,94.55,68.53,85.32,68.53z"/>
	<path class="st0" d="M85.32,106.84c-11.89,0-21.57-9.68-21.57-21.57c0-11.89,9.68-21.57,21.57-21.57s21.57,9.68,21.57,21.57
		C106.89,97.17,97.21,106.84,85.32,106.84z M85.32,64.71c-11.34,0-20.57,9.23-20.57,20.57s9.23,20.57,20.57,20.57
		s20.57-9.23,20.57-20.57S96.66,64.71,85.32,64.71z"/>
	<path class="st0" d="M85.32,110.54c-13.93,0-25.27-11.33-25.27-25.27s11.33-25.27,25.27-25.27s25.27,11.33,25.27,25.27
		S99.25,110.54,85.32,110.54z M85.32,61.01c-13.38,0-24.27,10.89-24.27,24.27s10.89,24.27,24.27,24.27s24.27-10.89,24.27-24.27
		S98.7,61.01,85.32,61.01z"/>
	<path class="st0" d="M85.32,114.46c-16.09,0-29.18-13.09-29.18-29.18c0-16.09,13.09-29.18,29.18-29.18
		c16.09,0,29.18,13.09,29.18,29.18C114.5,101.37,101.41,114.46,85.32,114.46z M85.32,57.09c-15.54,0-28.18,12.64-28.18,28.18
		s12.64,28.18,28.18,28.18s28.18-12.64,28.18-28.18S100.86,57.09,85.32,57.09z"/>
	<path class="st0" d="M85.32,118.57c-18.36,0-33.29-14.94-33.29-33.29s14.94-33.29,33.29-33.29s33.29,14.94,33.29,33.29
		S103.68,118.57,85.32,118.57z M85.32,52.98c-17.81,0-32.29,14.49-32.29,32.29c0,17.81,14.49,32.29,32.29,32.29
		s32.29-14.49,32.29-32.29C117.61,67.47,103.13,52.98,85.32,52.98z"/>
	<path class="st0" d="M85.32,122.45c-20.5,0-37.18-16.68-37.18-37.18c0-20.5,16.68-37.18,37.18-37.18s37.18,16.68,37.18,37.18
		C122.5,105.78,105.82,122.45,85.32,122.45z M85.32,49.1c-19.95,0-36.18,16.23-36.18,36.18s16.23,36.18,36.18,36.18
		s36.18-16.23,36.18-36.18S105.27,49.1,85.32,49.1z"/>
	<path class="st0" d="M85.32,126.36c-22.65,0-41.08-18.43-41.08-41.08s18.43-41.08,41.08-41.08s41.08,18.43,41.08,41.08
		S107.97,126.36,85.32,126.36z M85.32,45.19c-22.1,0-40.08,17.98-40.08,40.08c0,22.1,17.98,40.08,40.08,40.08
		c22.1,0,40.08-17.98,40.08-40.08C125.4,63.17,107.42,45.19,85.32,45.19z"/>
	<path class="st0" d="M85.32,130.23c-24.79,0-44.96-20.17-44.96-44.96s20.17-44.96,44.96-44.96s44.96,20.17,44.96,44.96
		S110.11,130.23,85.32,130.23z M85.32,41.32c-24.24,0-43.96,19.72-43.96,43.96s19.72,43.96,43.96,43.96s43.96-19.72,43.96-43.96
		S109.56,41.32,85.32,41.32z"/>
	<path class="st0" d="M85.32,134.2c-26.97,0-48.92-21.95-48.92-48.92s21.95-48.92,48.92-48.92s48.92,21.95,48.92,48.92
		S112.29,134.2,85.32,134.2z M85.32,37.36c-26.42,0-47.92,21.5-47.92,47.92s21.5,47.92,47.92,47.92s47.92-21.5,47.92-47.92
		S111.74,37.36,85.32,37.36z"/>
	<path class="st0" d="M85.32,138.37c-29.28,0-53.09-23.82-53.09-53.09c0-29.28,23.82-53.09,53.09-53.09S138.41,56,138.41,85.28
		C138.41,114.55,114.59,138.37,85.32,138.37z M85.32,33.18c-28.72,0-52.09,23.37-52.09,52.09c0,28.72,23.37,52.09,52.09,52.09
		s52.09-23.37,52.09-52.09C137.41,56.55,114.04,33.18,85.32,33.18z"/>
	<path class="st0" d="M85.32,142.42c-31.51,0-57.14-25.63-57.14-57.14s25.63-57.14,57.14-57.14s57.14,25.63,57.14,57.14
		S116.82,142.42,85.32,142.42z M85.32,29.14c-30.96,0-56.14,25.18-56.14,56.14s25.18,56.14,56.14,56.14s56.14-25.18,56.14-56.14
		S116.27,29.14,85.32,29.14z"/>
	<path class="st0" d="M85.32,146.11c-33.55,0-60.84-27.29-60.84-60.84s27.29-60.84,60.84-60.84s60.84,27.29,60.84,60.84
		S118.86,146.11,85.32,146.11z M85.32,25.44c-32.99,0-59.84,26.84-59.84,59.84c0,32.99,26.84,59.84,59.84,59.84
		c33,0,59.84-26.84,59.84-59.84C145.16,52.28,118.31,25.44,85.32,25.44z"/>
	<path d="M85.32,152.36c-36.99,0-67.08-30.09-67.08-67.08s30.09-67.08,67.08-67.08s67.08,30.09,67.08,67.08
		S122.31,152.36,85.32,152.36z M85.32,20.19c-35.89,0-65.08,29.2-65.08,65.08s29.2,65.08,65.08,65.08s65.08-29.2,65.08-65.08
		S121.2,20.19,85.32,20.19z"/>
	<path d="M85.32,170.35c-46.91,0-85.08-38.17-85.08-85.08C0.24,38.37,38.41,0.2,85.32,0.2s85.08,38.17,85.08,85.08
		C170.39,132.19,132.23,170.35,85.32,170.35z M85.32,3.2C40.06,3.2,3.24,40.02,3.24,85.28s36.82,82.08,82.08,82.08
		s82.08-36.82,82.08-82.08S130.57,3.2,85.32,3.2z"/>
	<g>
		<g>
			<g>
				<path d="M95.8,89.71l-9.46-15.38c-0.21-0.34-0.58-0.55-0.98-0.55c-0.4,0-0.76,0.2-0.97,0.54l-9.54,15.2
					c-0.22,0.35-0.23,0.8-0.04,1.16c0.2,0.37,0.58,0.59,1,0.6l19.01,0.18c0.41,0,0.8-0.22,1-0.58
					C96.02,90.52,96.02,90.07,95.8,89.71z M94.55,90.16l-18.46-0.18l9.27-14.76L94.55,90.16z"/>
			</g>
		</g>
	</g>
	<g>
		<path d="M56.01,20.82l-1.11,0.56l-3.98-2.23c-0.27-0.15-0.63-0.36-0.79-0.48c0.12,0.23,0.53,1,0.7,1.34l1.38,2.73l-1.22,0.62
			l-3.13-6.2l1.19-0.6l3.85,2.17c0.27,0.15,0.63,0.36,0.79,0.48c-0.12-0.23-0.53-1-0.7-1.34l-1.32-2.62l1.22-0.62L56.01,20.82z"/>
		<path d="M61.09,18.8l-1.3,0.49l-2.45-6.49l1.3-0.49L61.09,18.8z"/>
		<path d="M68.66,10.8l-1.1,0.9c-0.36-0.4-0.82-0.57-1.42-0.41c-1.01,0.26-1.35,1.3-1.02,2.55c0.32,1.21,1.14,1.98,2.15,1.71
			c0.6-0.16,0.89-0.51,1.09-1.2l1.31,0.38c-0.21,1.07-0.87,1.85-2.09,2.17c-1.76,0.46-3.29-0.57-3.85-2.69
			c-0.54-2.04,0.32-3.79,2.08-4.25C67.08,9.63,68.01,10.04,68.66,10.8z"/>
		<path d="M78.48,14.83l-4.92,0.66L72.64,8.6l4.78-0.64l0.18,1.35l-3.4,0.45l0.16,1.19l1.98-0.26l0.18,1.34l-1.98,0.26l0.22,1.66
			l3.55-0.47L78.48,14.83z"/>
		<path d="M95.09,8.12l-1.97,6.81l-1.36-0.1l-0.58-3.62c-0.07-0.42-0.13-0.94-0.15-1.21c-0.05,0.25-0.19,0.77-0.32,1.17l-1.14,3.49
			l-1.3-0.1l-0.92-7.03l1.44,0.11l0.35,3.42c0.03,0.34,0.07,0.86,0.08,1.15c0.07-0.28,0.22-0.79,0.32-1.12l1.07-3.31l1.21,0.09
			l0.57,3.43c0.05,0.34,0.12,0.86,0.15,1.16c0.05-0.29,0.17-0.8,0.25-1.12l0.86-3.33L95.09,8.12z"/>
		<path d="M104.22,13.43c-0.48,2.19-2,3.24-3.76,2.85c-1.77-0.39-2.7-1.95-2.22-4.14s2-3.24,3.77-2.85
			C103.77,9.68,104.7,11.24,104.22,13.43z M102.82,13.15c0.3-1.38-0.19-2.3-1.14-2.51c-0.95-0.21-1.75,0.42-2.05,1.8
			c-0.3,1.38,0.19,2.3,1.14,2.51C101.72,15.15,102.52,14.52,102.82,13.15z"/>
		<path d="M112.18,19.76l-1.5-0.54l-0.32-2.77l-1.31-0.48l-0.85,2.35l-1.31-0.47l2.36-6.53l3.04,1.1c1.23,0.44,2,1.49,1.5,2.88
			c-0.35,0.98-1,1.44-1.94,1.47L112.18,19.76z M112.44,14.84c0.21-0.59-0.05-0.96-0.63-1.17l-1.71-0.62l-0.61,1.68l1.71,0.62
			C111.8,15.58,112.23,15.41,112.44,14.84z"/>
		<path d="M120.84,24.01l-1.48-0.77l-0.13-3.84l-1.59,0.65l-0.94,1.81l-1.23-0.64l3.19-6.16l1.23,0.64l-0.91,1.75
			c-0.12,0.23-0.42,0.78-0.52,0.97c0.16-0.09,0.54-0.26,0.81-0.37l2.82-1.21l1.49,0.77l-2.91,1.2L120.84,24.01z"/>
	</g>
	<g>
		<path d="M43.67,150.23l-0.98-0.68l0.06-4.39c0.01-0.3,0.02-0.7,0.04-0.89c-0.14,0.2-0.6,0.9-0.82,1.21l-1.67,2.42l-1.08-0.75
			l3.8-5.49l1.05,0.73l-0.07,4.25c-0.01,0.3-0.02,0.7-0.04,0.89c0.14-0.2,0.6-0.9,0.82-1.21l1.61-2.32l1.08,0.75L43.67,150.23z"/>
		<path d="M48.71,153.16l-1.17-0.64l3.23-5.84l1.17,0.65L48.71,153.16z"/>
		<path d="M59.46,152.34l-1.36,0.04c-0.04-0.51-0.28-0.91-0.83-1.15c-0.92-0.4-1.79,0.18-2.28,1.32c-0.48,1.1-0.3,2.17,0.62,2.57
			c0.55,0.24,0.98,0.14,1.54-0.26l0.77,1.06c-0.79,0.69-1.75,0.89-2.86,0.41c-1.6-0.69-2.15-2.38-1.32-4.32
			c0.8-1.87,2.48-2.68,4.08-1.99C58.96,150.51,59.42,151.38,59.46,152.34z"/>
		<path d="M65.81,159.94l-4.58-1.36l1.9-6.4l4.44,1.32l-0.37,1.25l-3.16-0.94l-0.33,1.11l1.84,0.55l-0.37,1.24l-1.84-0.55
			l-0.46,1.54l3.3,0.98L65.81,159.94z"/>
		<path d="M75.23,161.78l-1.51-0.26l-0.78-2.57l-1.33-0.22l-0.4,2.37l-1.32-0.22l1.11-6.58l3.06,0.52c1.24,0.21,2.15,1.07,1.91,2.47
			c-0.17,0.99-0.69,1.54-1.59,1.72L75.23,161.78z M74.63,157.09c0.1-0.59-0.22-0.9-0.8-1l-1.72-0.29l-0.29,1.69l1.72,0.29
			C74.16,157.89,74.53,157.66,74.63,157.09z"/>
		<path d="M89.82,157.74c0.04,1.54-0.98,2.22-2.36,2.25l-1.47,0.03l0.05,2.37l-1.33,0.03l-0.15-6.68l2.92-0.07
			C88.74,155.64,89.79,156.32,89.82,157.74z M88.45,157.8c-0.01-0.58-0.4-0.84-0.99-0.83L85.92,157l0.04,1.72l1.55-0.04
			C88.14,158.67,88.46,158.38,88.45,157.8z"/>
		<path d="M98.67,161.27l-4.73,0.67l-0.93-6.61l4.59-0.64l0.18,1.29l-3.27,0.46l0.16,1.14l1.9-0.27l0.18,1.29l-1.9,0.27l0.22,1.6
			l3.41-0.48L98.67,161.27z"/>
		<path d="M106.93,155.87c0.55,2.09-0.29,3.65-1.97,4.09c-1.69,0.44-3.17-0.49-3.72-2.58c-0.55-2.09,0.29-3.65,1.98-4.09
			C104.9,152.85,106.38,153.78,106.93,155.87z M105.61,156.24c-0.34-1.31-1.17-1.89-2.07-1.66c-0.9,0.24-1.31,1.12-0.97,2.44
			c0.34,1.31,1.17,1.89,2.07,1.66C105.54,158.44,105.95,157.55,105.61,156.24z"/>
		<path d="M114.86,151.61c0.57,1.44-0.14,2.42-1.43,2.93l-1.37,0.54l0.88,2.2l-1.24,0.5l-2.48-6.21l2.71-1.08
			C113.11,150.03,114.33,150.29,114.86,151.61z M113.6,152.15c-0.22-0.54-0.67-0.65-1.22-0.43l-1.43,0.57l0.64,1.6l1.45-0.58
			C113.61,153.08,113.81,152.69,113.6,152.15z"/>
		<path d="M124.3,151.87l-4.12,2.23l-3.18-5.88l1.17-0.64l2.56,4.72l2.95-1.6L124.3,151.87z"/>
		<path d="M131.58,147.01l-3.91,2.74l-3.83-5.47l3.8-2.66l0.75,1.07l-2.7,1.9l0.66,0.95l1.57-1.1l0.75,1.06l-1.57,1.1l0.93,1.32
			l2.82-1.98L131.58,147.01z"/>
	</g>
	<path d="M136.7,140.66l-1.36-1.47c14.95-13.88,23.52-33.53,23.52-53.92c0-24.68-12.28-47.58-32.85-61.27l1.11-1.66
		c21.13,14.06,33.74,37.59,33.74,62.94C160.87,106.22,152.06,126.4,136.7,140.66z"/>
	<path d="M33.9,140.63C18.56,126.37,9.77,106.2,9.77,85.28c0-24.88,12.25-48.16,32.78-62.29l1.13,1.65
		C23.7,38.39,11.77,61.06,11.77,85.28c0,20.37,8.56,40.01,23.49,53.88L33.9,140.63z"/>
	<g>
		<g>
			<g>
				<path class="st0" d="M87.79,85.31h-1.75v1.81h-1.31v-1.81H83v-1.24h1.75v-1.81h1.31v1.81h1.75V85.31z"/>
			</g>
		</g>
	</g>
</g>
</svg>
