<?xml version="1.0" encoding="utf-8"?>
<!-- Generator: Adobe Illustrator 28.1.0, SVG Export Plug-In . SVG Version: 6.00 Build 0)  -->
<svg version="1.1" id="Layer_1" xmlns="http://www.w3.org/2000/svg" xmlns:xlink="http://www.w3.org/1999/xlink" x="0px" y="0px"
	 viewBox="0 0 170.57 170.6" style="enable-background:new 0 0 170.57 170.6;" xml:space="preserve">
<style type="text/css">
	.st0{fill:#F16028;}
</style>
<path class="st0" d="M85.25,99.42c-7.79,0-14.12-6.34-14.12-14.12s6.34-14.12,14.12-14.12s14.12,6.34,14.12,14.12
	S93.03,99.42,85.25,99.42z M85.25,72.17c-7.24,0-13.12,5.89-13.12,13.12s5.89,13.12,13.12,13.12s13.12-5.89,13.12-13.12
	S92.48,72.17,85.25,72.17z"/>
<path class="st0" d="M85.25,103.04c-9.79,0-17.75-7.96-17.75-17.75c0-9.79,7.96-17.75,17.75-17.75s17.75,7.96,17.75,17.75
	C102.99,95.08,95.03,103.04,85.25,103.04z M85.25,68.55c-9.23,0-16.75,7.51-16.75,16.75c0,9.23,7.51,16.75,16.75,16.75
	s16.75-7.51,16.75-16.75C101.99,76.06,94.48,68.55,85.25,68.55z"/>
<path class="st0" d="M85.25,106.86c-11.89,0-21.57-9.68-21.57-21.57c0-11.89,9.68-21.57,21.57-21.57s21.57,9.68,21.57,21.57
	C106.82,97.19,97.14,106.86,85.25,106.86z M85.25,64.72c-11.34,0-20.57,9.23-20.57,20.57s9.23,20.57,20.57,20.57
	s20.57-9.23,20.57-20.57S96.59,64.72,85.25,64.72z"/>
<path class="st0" d="M85.25,110.56c-13.93,0-25.27-11.33-25.27-25.27s11.33-25.27,25.27-25.27s25.27,11.33,25.27,25.27
	S99.18,110.56,85.25,110.56z M85.25,61.03c-13.38,0-24.27,10.89-24.27,24.27s10.89,24.27,24.27,24.27s24.27-10.89,24.27-24.27
	S98.63,61.03,85.25,61.03z"/>
<path class="st0" d="M85.25,114.47c-16.09,0-29.18-13.09-29.18-29.18c0-16.09,13.09-29.18,29.18-29.18
	c16.09,0,29.18,13.09,29.18,29.18C114.43,101.38,101.34,114.47,85.25,114.47z M85.25,57.11c-15.54,0-28.18,12.64-28.18,28.18
	s12.64,28.18,28.18,28.18s28.18-12.64,28.18-28.18S100.79,57.11,85.25,57.11z"/>
<path class="st0" d="M85.25,118.59c-18.36,0-33.29-14.94-33.29-33.29S66.89,52,85.25,52s33.29,14.94,33.29,33.29
	S103.61,118.59,85.25,118.59z M85.25,53c-17.81,0-32.29,14.49-32.29,32.29c0,17.81,14.49,32.29,32.29,32.29s32.29-14.49,32.29-32.29
	C117.54,67.49,103.05,53,85.25,53z"/>
<path class="st0" d="M85.25,122.47c-20.5,0-37.18-16.68-37.18-37.18c0-20.5,16.68-37.18,37.18-37.18s37.18,16.68,37.18,37.18
	C122.42,105.79,105.75,122.47,85.25,122.47z M85.25,49.12c-19.95,0-36.18,16.23-36.18,36.18s16.23,36.18,36.18,36.18
	s36.18-16.23,36.18-36.18S105.2,49.12,85.25,49.12z"/>
<path class="st0" d="M85.25,126.38c-22.65,0-41.08-18.43-41.08-41.08s18.43-41.08,41.08-41.08s41.08,18.43,41.08,41.08
	S107.9,126.38,85.25,126.38z M85.25,45.21c-22.1,0-40.08,17.98-40.08,40.08c0,22.1,17.98,40.08,40.08,40.08
	c22.1,0,40.08-17.98,40.08-40.08C125.33,63.19,107.35,45.21,85.25,45.21z"/>
<path class="st0" d="M85.25,130.25c-24.79,0-44.96-20.17-44.96-44.96s20.17-44.96,44.96-44.96S130.2,60.5,130.2,85.29
	S110.04,130.25,85.25,130.25z M85.25,41.34c-24.24,0-43.96,19.72-43.96,43.96s19.72,43.96,43.96,43.96s43.96-19.72,43.96-43.96
	S109.49,41.34,85.25,41.34z"/>
<path class="st0" d="M85.25,134.21c-26.97,0-48.92-21.95-48.92-48.92s21.95-48.92,48.92-48.92s48.92,21.95,48.92,48.92
	S112.22,134.21,85.25,134.21z M85.25,37.37c-26.42,0-47.92,21.5-47.92,47.92s21.5,47.92,47.92,47.92s47.92-21.5,47.92-47.92
	S111.67,37.37,85.25,37.37z"/>
<path class="st0" d="M85.25,138.39c-29.28,0-53.09-23.82-53.09-53.09c0-29.28,23.82-53.09,53.09-53.09s53.09,23.82,53.09,53.09
	C138.34,114.57,114.52,138.39,85.25,138.39z M85.25,33.2c-28.72,0-52.09,23.37-52.09,52.09c0,28.72,23.37,52.09,52.09,52.09
	s52.09-23.37,52.09-52.09C137.34,56.57,113.97,33.2,85.25,33.2z"/>
<path class="st0" d="M85.25,142.43c-31.51,0-57.14-25.63-57.14-57.14s25.63-57.14,57.14-57.14s57.14,25.63,57.14,57.14
	S116.75,142.43,85.25,142.43z M85.25,29.16c-30.96,0-56.14,25.18-56.14,56.14s25.18,56.14,56.14,56.14s56.14-25.18,56.14-56.14
	S116.2,29.16,85.25,29.16z"/>
<path class="st0" d="M85.25,146.13c-33.55,0-60.84-27.29-60.84-60.84S51.7,24.46,85.25,24.46s60.84,27.29,60.84,60.84
	S118.79,146.13,85.25,146.13z M85.25,25.46c-32.99,0-59.84,26.84-59.84,59.84c0,32.99,26.84,59.84,59.84,59.84
	c33,0,59.84-26.84,59.84-59.84C145.09,52.3,118.24,25.46,85.25,25.46z"/>
<path d="M85.25,152.38c-36.99,0-67.08-30.09-67.08-67.08s30.09-67.08,67.08-67.08s67.08,30.09,67.08,67.08
	S122.24,152.38,85.25,152.38z M85.25,20.21c-35.89,0-65.08,29.2-65.08,65.08s29.2,65.08,65.08,65.08s65.08-29.2,65.08-65.08
	S121.13,20.21,85.25,20.21z"/>
<path d="M85.25,170.37c-46.91,0-85.08-38.17-85.08-85.08c0-46.91,38.17-85.08,85.08-85.08s85.08,38.17,85.08,85.08
	C170.32,132.2,132.16,170.37,85.25,170.37z M85.25,3.22c-45.26,0-82.08,36.82-82.08,82.08s36.82,82.08,82.08,82.08
	s82.08-36.82,82.08-82.08S130.5,3.22,85.25,3.22z"/>
<g>
	<path d="M85.29,74.95l9.46,15.38l-19-0.18L85.29,74.95 M85.29,73.95c-0.34,0-0.66,0.18-0.85,0.47l-9.54,15.2
		c-0.19,0.31-0.2,0.69-0.03,1.01c0.17,0.32,0.51,0.52,0.87,0.52l19,0.18c0,0,0.01,0,0.01,0c0.36,0,0.69-0.19,0.87-0.51
		c0.18-0.32,0.17-0.71-0.02-1.02l-9.46-15.38C85.96,74.14,85.64,73.96,85.29,73.95C85.29,73.95,85.29,73.95,85.29,73.95L85.29,73.95
		z"/>
	<g>
		<circle class="st0" cx="85.25" cy="84.55" r="1.43"/>
	</g>
</g>
<g>
	<path d="M55.94,20.84l-1.11,0.56l-3.98-2.23c-0.27-0.15-0.63-0.36-0.79-0.48c0.12,0.23,0.53,1,0.7,1.34l1.38,2.73l-1.22,0.62
		l-3.13-6.2l1.19-0.6l3.85,2.17c0.27,0.15,0.63,0.36,0.79,0.48c-0.12-0.23-0.53-1-0.7-1.34l-1.32-2.62l1.22-0.62L55.94,20.84z"/>
	<path d="M61.02,18.82l-1.3,0.49l-2.45-6.49l1.3-0.49L61.02,18.82z"/>
	<path d="M68.59,10.82l-1.1,0.9c-0.36-0.4-0.82-0.57-1.42-0.41c-1.01,0.26-1.35,1.3-1.02,2.55c0.32,1.21,1.14,1.98,2.15,1.71
		c0.6-0.16,0.89-0.51,1.09-1.2l1.31,0.38c-0.21,1.07-0.87,1.85-2.09,2.17c-1.76,0.46-3.29-0.57-3.85-2.69
		c-0.54-2.04,0.32-3.79,2.08-4.25C67.01,9.64,67.94,10.06,68.59,10.82z"/>
	<path d="M78.41,14.84l-4.92,0.66l-0.92-6.88l4.78-0.64l0.18,1.35l-3.4,0.45l0.16,1.19l1.98-0.26l0.18,1.34l-1.98,0.26l0.22,1.66
		l3.55-0.47L78.41,14.84z"/>
	<path d="M95.02,8.14l-1.97,6.81l-1.36-0.1l-0.58-3.62c-0.07-0.42-0.13-0.94-0.15-1.21c-0.05,0.25-0.19,0.77-0.32,1.17l-1.14,3.49
		l-1.3-0.1l-0.92-7.03l1.44,0.11l0.35,3.42c0.03,0.34,0.07,0.86,0.08,1.15c0.07-0.28,0.22-0.79,0.32-1.12l1.07-3.31l1.21,0.09
		l0.57,3.43c0.05,0.34,0.12,0.86,0.15,1.16c0.05-0.29,0.17-0.8,0.25-1.12l0.86-3.33L95.02,8.14z"/>
	<path d="M104.15,13.45c-0.48,2.19-2,3.24-3.76,2.85c-1.77-0.39-2.7-1.95-2.22-4.14s2-3.24,3.77-2.85
		C103.7,9.7,104.63,11.26,104.15,13.45z M102.75,13.16c0.3-1.38-0.19-2.3-1.14-2.51c-0.95-0.21-1.75,0.42-2.05,1.8
		c-0.3,1.38,0.19,2.3,1.14,2.51C101.65,15.17,102.45,14.54,102.75,13.16z"/>
	<path d="M112.11,19.78l-1.5-0.54l-0.32-2.77l-1.31-0.48l-0.85,2.35l-1.31-0.47l2.36-6.53l3.04,1.1c1.23,0.44,2,1.49,1.5,2.88
		c-0.35,0.98-1,1.44-1.94,1.47L112.11,19.78z M112.37,14.86c0.21-0.59-0.05-0.96-0.63-1.17l-1.71-0.62l-0.61,1.68l1.71,0.62
		C111.73,15.59,112.16,15.43,112.37,14.86z"/>
	<path d="M120.77,24.02l-1.48-0.77l-0.13-3.84l-1.59,0.65l-0.94,1.81l-1.23-0.64l3.19-6.16l1.23,0.64l-0.91,1.75
		c-0.12,0.23-0.42,0.78-0.52,0.97c0.16-0.09,0.54-0.26,0.81-0.37l2.82-1.21l1.49,0.77l-2.91,1.2L120.77,24.02z"/>
</g>
<g>
	<path d="M43.6,150.24l-0.98-0.68l0.06-4.39c0.01-0.3,0.02-0.7,0.04-0.89c-0.14,0.2-0.6,0.9-0.82,1.21l-1.67,2.42l-1.08-0.75
		l3.8-5.49L44,142.4l-0.07,4.25c-0.01,0.3-0.02,0.7-0.04,0.89c0.14-0.2,0.6-0.9,0.82-1.21l1.61-2.32l1.08,0.75L43.6,150.24z"/>
	<path d="M48.64,153.17l-1.17-0.64l3.23-5.84l1.17,0.65L48.64,153.17z"/>
	<path d="M59.39,152.36l-1.36,0.04c-0.04-0.51-0.28-0.91-0.83-1.15c-0.92-0.4-1.79,0.18-2.28,1.32c-0.48,1.1-0.3,2.17,0.62,2.57
		c0.55,0.24,0.98,0.14,1.54-0.26l0.77,1.06c-0.79,0.69-1.75,0.89-2.86,0.41c-1.6-0.69-2.15-2.38-1.32-4.32
		c0.8-1.87,2.48-2.68,4.08-1.99C58.89,150.53,59.35,151.39,59.39,152.36z"/>
	<path d="M65.74,159.96l-4.58-1.36l1.9-6.4l4.44,1.32l-0.37,1.25l-3.16-0.94l-0.33,1.11l1.84,0.55l-0.37,1.24l-1.84-0.55l-0.46,1.54
		l3.3,0.98L65.74,159.96z"/>
	<path d="M75.16,161.8l-1.51-0.26l-0.78-2.57l-1.33-0.22l-0.4,2.37l-1.32-0.22l1.11-6.58l3.06,0.52c1.24,0.21,2.15,1.07,1.91,2.47
		c-0.17,0.99-0.69,1.54-1.59,1.72L75.16,161.8z M74.56,157.11c0.1-0.59-0.22-0.9-0.8-1l-1.72-0.29l-0.29,1.69l1.72,0.29
		C74.09,157.91,74.46,157.68,74.56,157.11z"/>
	<path d="M89.75,157.75c0.04,1.54-0.98,2.22-2.36,2.25l-1.47,0.03l0.05,2.37l-1.33,0.03l-0.15-6.68l2.92-0.07
		C88.66,155.66,89.72,156.33,89.75,157.75z M88.38,157.81c-0.01-0.58-0.4-0.84-0.99-0.83l-1.54,0.03l0.04,1.72l1.55-0.04
		C88.06,158.69,88.39,158.4,88.38,157.81z"/>
	<path d="M98.6,161.29l-4.73,0.67l-0.93-6.61l4.59-0.64l0.18,1.29l-3.27,0.46l0.16,1.14l1.9-0.27l0.18,1.29l-1.9,0.27l0.22,1.6
		l3.41-0.48L98.6,161.29z"/>
	<path d="M106.86,155.89c0.55,2.09-0.29,3.65-1.97,4.09c-1.69,0.44-3.17-0.49-3.72-2.58c-0.55-2.09,0.29-3.65,1.98-4.09
		C104.83,152.87,106.31,153.8,106.86,155.89z M105.54,156.26c-0.34-1.31-1.17-1.89-2.07-1.66c-0.9,0.24-1.31,1.12-0.97,2.44
		c0.34,1.31,1.17,1.89,2.07,1.66C105.47,158.45,105.88,157.57,105.54,156.26z"/>
	<path d="M114.79,151.63c0.57,1.44-0.14,2.42-1.43,2.93l-1.37,0.54l0.88,2.2l-1.24,0.5l-2.48-6.21l2.71-1.08
		C113.04,150.05,114.26,150.31,114.79,151.63z M113.53,152.17c-0.22-0.54-0.67-0.65-1.22-0.43l-1.43,0.57l0.64,1.6l1.45-0.58
		C113.54,153.1,113.74,152.71,113.53,152.17z"/>
	<path d="M124.22,151.89l-4.12,2.23l-3.18-5.88l1.17-0.64l2.56,4.72l2.95-1.6L124.22,151.89z"/>
	<path d="M131.51,147.03l-3.91,2.74l-3.83-5.47l3.8-2.66l0.75,1.07l-2.7,1.9l0.66,0.95l1.57-1.1l0.75,1.06l-1.57,1.1l0.93,1.32
		l2.82-1.98L131.51,147.03z"/>
</g>
<path d="M136.63,140.68l-1.36-1.47c14.95-13.88,23.52-33.53,23.52-53.92c0-24.68-12.28-47.58-32.85-61.27l1.11-1.66
	c21.13,14.06,33.74,37.59,33.74,62.94C160.8,106.24,151.99,126.42,136.63,140.68z"/>
<path d="M33.83,140.64C18.49,126.39,9.7,106.22,9.7,85.29c0-24.88,12.25-48.16,32.78-62.29l1.13,1.65
	C23.63,38.4,11.7,61.07,11.7,85.29c0,20.37,8.56,40.01,23.49,53.88L33.83,140.64z"/>
</svg>
