<?xml version="1.0" encoding="utf-8"?>
<!-- Generator: Adobe Illustrator 28.1.0, SVG Export Plug-In . SVG Version: 6.00 Build 0)  -->
<svg version="1.1" id="Layer_1" xmlns="http://www.w3.org/2000/svg" xmlns:xlink="http://www.w3.org/1999/xlink" x="0px" y="0px"
	 viewBox="0 0 115.84 116.11" style="enable-background:new 0 0 115.84 116.11;" xml:space="preserve">
<style type="text/css">
	.st0{fill:#F16028;}
	.st1{fill:#F7F1E4;}
</style>
<path d="M73.48,20.04L71.91,8.38l10.89,4.47L73.48,20.04z M73.66,10.64l0.91,6.75l5.39-4.17L73.66,10.64z"/>
<path d="M62.67,19.6h-1.11l3.55-6.15l-3.58-6.19h-7.15l-3.58,6.19l3.55,6.15h-1.31l-3.83,6.63l0.8,2.9l4.26-7.39h7.15l4.33,7.5
	l0.79-2.92L62.67,19.6z M60.34,17.6h-4.79l-2.39-4.14l2.39-4.14h4.79l2.39,4.14L60.34,17.6z"/>
<circle cx="57.95" cy="13.45" r="2.09"/>
<path d="M60.34,23.88h-4.79l-2.39,4.14l2.39,4.14h4.79l2.39-4.14L60.34,23.88z M57.95,30.12c-1.16,0-2.09-0.94-2.09-2.09
	c0-1.16,0.94-2.09,2.09-2.09s2.09,0.94,2.09,2.09C60.04,29.18,59.11,30.12,57.95,30.12z"/>
<polygon points="68.67,15.51 65.66,20.61 67.4,23.62 70.4,21.88 70.34,15.95 "/>
<polygon points="47.18,15.51 50.18,20.61 48.45,23.62 45.44,21.88 45.5,15.95 "/>
<polygon points="69.22,12.54 69.22,12.55 70.79,6.71 64.95,5.14 64.95,5.15 "/>
<polygon points="46.45,12.53 46.44,12.53 44.88,6.69 50.72,5.13 50.72,5.14 "/>
<path d="M57.95,57.95"/>
<path d="M102.45,50.8l-6.15,3.55v-1.31l-6.63-3.83l-2.9,0.8l7.39,4.26v7.15l-7.5,4.33l2.92,0.79l6.73-3.89v-1.11l6.15,3.55l6.2-3.58
	v-7.15L102.45,50.8z M106.59,60.34l-4.14,2.39l-4.14-2.39v-4.79l4.14-2.39l4.14,2.39V60.34z"/>
<circle cx="102.45" cy="57.95" r="2.09"/>
<polygon points="100.39,68.67 95.29,65.67 92.28,67.4 94.02,70.4 99.95,70.34 "/>
<polygon points="100.39,47.18 95.29,50.18 92.28,48.45 94.02,45.44 99.95,45.5 "/>
<polygon points="103.36,69.22 103.35,69.23 109.19,70.79 110.76,64.95 110.75,64.95 "/>
<polygon points="103.37,46.45 103.37,46.44 109.21,44.88 110.77,50.72 110.76,50.72 "/>
<path d="M62.86,96.3l3.83-6.63l-0.8-2.9l-4.26,7.39h-7.15l-4.33-7.5l-0.79,2.92l3.89,6.73h1.11l-3.55,6.15l3.58,6.19h7.15l3.58-6.19
	l-3.55-6.15H62.86z M62.73,102.45l-2.39,4.14h-4.79l-2.39-4.14l2.39-4.14h4.79L62.73,102.45z"/>
<circle cx="57.95" cy="102.45" r="2.09"/>
<polygon points="47.23,100.4 50.23,95.29 48.5,92.29 45.5,94.02 45.56,99.95 "/>
<polygon points="68.72,100.4 65.72,95.29 67.45,92.29 70.46,94.02 70.4,99.95 "/>
<polygon points="46.68,103.36 46.67,103.35 45.11,109.19 50.95,110.76 50.95,110.75 "/>
<polygon points="69.45,103.37 69.46,103.37 71.02,109.21 65.18,110.77 65.18,110.76 "/>
<path d="M21.75,54.47l7.5-4.33l-2.92-0.79l-6.73,3.89v1.11l-6.15-3.55l-6.2,3.58v7.15l6.2,3.58l6.15-3.55v1.31l6.63,3.83l2.9-0.8
	l-7.39-4.26V54.47z M17.59,60.34l-4.14,2.39l-4.14-2.39v-4.79l4.14-2.39l4.14,2.39V60.34z"/>
<circle cx="13.45" cy="57.95" r="2.09"/>
<polygon points="15.5,47.23 20.61,50.24 23.61,48.5 21.88,45.5 15.95,45.56 "/>
<polygon points="15.5,68.72 20.61,65.72 23.61,67.45 21.88,70.46 15.95,70.4 "/>
<polygon points="12.54,46.68 12.55,46.68 6.71,45.11 5.14,50.95 5.15,50.95 "/>
<polygon points="12.53,69.45 12.53,69.46 6.69,71.02 5.13,65.18 5.14,65.18 "/>
<path d="M43.17,32.13l-1.5-2.62l-7.5-2.01l-0.79,0.79l-1.84-6.86l-6.91-1.85l-5.06,5.06l1.85,6.91l6.86,1.84l-0.93,0.93l1.98,7.39
	l2.62,1.49l-2.21-8.24l5.06-5.06L43.17,32.13z M27.72,31.11l-4.62-1.24l-1.24-4.62l3.38-3.38l4.62,1.24l1.24,4.62L27.72,31.11z"/>
<circle cx="26.48" cy="26.48" r="2.09"/>
<polygon points="35.51,20.36 37,26.09 40.35,26.99 41.25,23.64 37.02,19.49 "/>
<polygon points="20.32,35.55 26.05,37.04 26.95,40.39 23.6,41.29 19.45,37.06 "/>
<polygon points="33.81,17.88 33.82,17.87 30.8,12.63 25.56,15.66 25.56,15.66 "/>
<polygon points="17.7,33.97 17.69,33.97 12.46,30.95 15.49,25.71 15.49,25.72 "/>
<path d="M96.32,24.63l-5.06-5.06l-6.91,1.85l-1.84,6.86l-0.93-0.93l-7.39,1.98l-1.49,2.62l8.24-2.21l5.06,5.06l-2.24,8.36l2.62-1.5
	l2.01-7.5l-0.79-0.79l6.86-1.84L96.32,24.63z M92.8,29.87l-4.62,1.24l-3.38-3.38l1.24-4.62l4.62-1.24l3.38,3.38L92.8,29.87z"/>
<circle cx="89.41" cy="26.49" r="2.09"/>
<polygon points="95.54,35.52 89.81,37 88.91,40.35 92.26,41.25 96.41,37.02 "/>
<polygon points="80.35,20.32 78.86,26.05 75.51,26.95 74.61,23.6 78.84,19.45 "/>
<polygon points="98.02,33.81 98.03,33.82 103.27,30.8 100.24,25.56 100.24,25.56 "/>
<polygon points="81.93,17.7 81.93,17.69 84.95,12.46 90.19,15.49 90.18,15.5 "/>
<circle cx="76.06" cy="13.75" r="1.16"/>
<path d="M94.47,84.36l-6.86-1.84l0.93-0.93l-1.98-7.39l-2.62-1.49l2.21,8.24l-5.06,5.06l-8.36-2.24l1.5,2.62l7.5,2.01l0.79-0.79
	l1.84,6.86l6.91,1.85l5.06-5.06L94.47,84.36z M90.65,94.04l-4.62-1.24l-1.24-4.62l3.38-3.38l4.62,1.24l1.24,4.62L90.65,94.04z"/>
<circle cx="89.41" cy="89.42" r="2.09"/>
<polygon points="80.38,95.54 78.9,89.81 75.55,88.91 74.65,92.26 78.88,96.41 "/>
<polygon points="95.58,80.35 89.84,78.86 88.95,75.51 92.3,74.61 96.45,78.84 "/>
<polygon points="82.09,98.02 82.08,98.03 85.1,103.27 90.34,100.25 90.34,100.24 "/>
<polygon points="98.2,81.93 98.21,81.93 103.44,84.95 100.41,90.19 100.4,90.18 "/>
<path d="M34.95,86.15l-5.06-5.06l2.24-8.36l-2.62,1.5l-2.01,7.5l0.79,0.79l-6.86,1.84l-1.85,6.91l5.06,5.06l6.91-1.85l1.84-6.86
	l0.93,0.93l7.39-1.98l1.49-2.62L34.95,86.15z M29.87,92.8l-4.62,1.24l-3.38-3.38l1.24-4.62l4.62-1.24l3.38,3.38L29.87,92.8z"/>
<circle cx="26.48" cy="89.42" r="2.09"/>
<polygon points="20.36,80.39 26.09,78.9 26.99,75.55 23.64,74.65 19.49,78.88 "/>
<polygon points="35.55,95.58 37.04,89.85 40.39,88.95 41.29,92.3 37.05,96.45 "/>
<polygon points="17.88,82.09 17.87,82.08 12.63,85.1 15.65,90.34 15.66,90.34 "/>
<polygon points="33.97,98.2 33.97,98.21 30.95,103.44 25.71,100.41 25.72,100.41 "/>
<path d="M80.25,66.79l4.4,0.02l0.83-3.07l-3.82-2.21v-2.48c0,0,0,0,0,0c0.02-0.37,0.06-0.73,0.06-1.1c0-0.49-0.04-0.98-0.07-1.47
	c0,0.04,0.01,0.09,0.01,0.13l-0.01-2.33l3.81-2.21l-0.83-3.07l-4.41,0.03l-0.17-0.28l-0.08-0.32l3.13-3.1l-1.58-2.76l-4.26,1.14
	l-1.75-1.75c0.03,0.04,0.06,0.08,0.1,0.12c-0.63-0.7-1.3-1.37-2.01-1.99c0.06,0.05,0.13,0.1,0.19,0.15l-1.65-1.64l1.13-4.26
	l-2.76-1.58l-3.1,3.14l-0.32-0.08l-0.29-0.17l0.02-4.4l-3.07-0.84l-2.21,3.82h-2.48c0,0,0,0,0,0c-0.37-0.02-0.73-0.06-1.1-0.06
	c-0.49,0-0.98,0.04-1.47,0.07c0.04,0,0.09-0.01,0.13-0.01l-2.33,0.01l-2.21-3.81l-3.07,0.83l0.03,4.41l-0.29,0.17l-0.32,0.08
	l-3.1-3.13l-2.76,1.58l1.14,4.26l-1.75,1.75c0.04-0.03,0.08-0.06,0.12-0.1c-0.7,0.63-1.37,1.3-1.99,2.01
	c0.05-0.06,0.1-0.13,0.15-0.19l-1.64,1.65l-4.26-1.13l-1.58,2.76l3.14,3.1l-0.08,0.32l-0.17,0.29l-4.4-0.02l-0.83,3.07l3.82,2.21
	v2.48c0,0,0,0,0,0c-0.02,0.37-0.06,0.73-0.06,1.11c0,0.5,0.04,0.98,0.07,1.47c0-0.05-0.01-0.09-0.01-0.13l0.01,2.33l-3.81,2.21
	l0.83,3.07l4.41-0.03l0.17,0.28l0.08,0.32l-3.13,3.1l1.58,2.76l4.26-1.14l1.75,1.75c-0.03-0.04-0.06-0.08-0.1-0.12
	c0.63,0.7,1.3,1.37,2.01,1.99c-0.06-0.05-0.13-0.1-0.19-0.15l1.65,1.64l-1.13,4.26l2.76,1.58L48.5,80l0.32,0.08l0.29,0.17l-0.02,4.4
	l3.07,0.84l2.21-3.82h2.48c0,0,0,0,0,0c0.37,0.02,0.73,0.06,1.1,0.06c0.49,0,0.98-0.04,1.47-0.07c-0.04,0-0.09,0.01-0.13,0.01
	l2.33-0.01l2.21,3.81l3.07-0.83l-0.03-4.41l0.29-0.17l0.32-0.08l3.1,3.13l2.76-1.58l-1.14-4.26l1.75-1.75
	c-0.04,0.03-0.08,0.06-0.12,0.1c0.7-0.63,1.37-1.3,1.99-2.01c-0.05,0.06-0.1,0.13-0.15,0.19l1.64-1.65l4.26,1.13l1.58-2.76L80,67.4
	l0.08-0.32L80.25,66.79z M57.95,77.44c-10.76,0-19.49-8.72-19.49-19.49s8.72-19.49,19.49-19.49s19.49,8.72,19.49,19.49
	S68.71,77.44,57.95,77.44z"/>
<path d="M71.4,27.48c-0.97-0.97-2.55-0.97-3.53,0c-0.97,0.97-0.97,2.55,0,3.53s2.55,0.97,3.53,0C72.37,30.03,72.37,28.46,71.4,27.48
	z M70.45,30.07c-0.45,0.45-1.19,0.45-1.64,0c-0.45-0.45-0.45-1.19,0-1.64c0.45-0.45,1.19-0.45,1.64,0
	C70.91,28.88,70.91,29.61,70.45,30.07z"/>
<path d="M107.41,43.62l-11.67-1.5l7.13-9.36L107.41,43.62z M98.38,41.02l6.76,0.87l-2.63-6.29L98.38,41.02z"/>
<circle cx="102.01" cy="39.51" r="1.16"/>
<path d="M86.51,43.42c-1.38,0-2.49,1.12-2.49,2.49c0,1.38,1.12,2.49,2.49,2.49S89,47.29,89,45.91C89,44.54,87.89,43.42,86.51,43.42z
	 M86.51,47.08c-0.64,0-1.16-0.52-1.16-1.16c0-0.64,0.52-1.16,1.16-1.16s1.16,0.52,1.16,1.16C87.67,46.56,87.15,47.08,86.51,47.08z"
	/>
<path d="M103.05,82.8l-7.19-9.31l11.66-1.57L103.05,82.8z M98.51,74.57l4.16,5.39l2.59-6.3L98.51,74.57z"/>
<circle cx="102.15" cy="76.06" r="1.16"/>
<path d="M88.42,67.87c-0.97-0.97-2.55-0.97-3.53,0c-0.97,0.97-0.97,2.55,0,3.53c0.97,0.97,2.55,0.97,3.53,0
	C89.39,70.42,89.39,68.84,88.42,67.87z M87.48,70.46c-0.45,0.45-1.19,0.45-1.64,0c-0.45-0.45-0.45-1.19,0-1.64
	c0.45-0.45,1.19-0.45,1.64,0C87.93,69.26,87.93,70,87.48,70.46z"/>
<path d="M72.28,107.41l1.5-11.67l9.36,7.13L72.28,107.41z M74.88,98.38l-0.87,6.76l6.28-2.63L74.88,98.38z"/>
<circle cx="76.39" cy="102.01" r="1.16"/>
<path d="M69.99,84.02c-1.38,0-2.49,1.12-2.49,2.49S68.61,89,69.99,89c1.38,0,2.49-1.12,2.49-2.49S71.36,84.02,69.99,84.02z
	 M69.99,87.67c-0.64,0-1.16-0.52-1.16-1.16c0-0.64,0.52-1.16,1.16-1.16c0.64,0,1.16,0.52,1.16,1.16
	C71.15,87.15,70.63,87.67,69.99,87.67z"/>
<path d="M43.99,107.52l-10.89-4.47l9.31-7.19L43.99,107.52z M35.94,102.67l6.3,2.59l-0.91-6.75L35.94,102.67z"/>
<circle cx="39.84" cy="102.15" r="1.16"/>
<path d="M48.03,84.89c-0.97-0.97-2.55-0.97-3.53,0c-0.97,0.97-0.97,2.55,0,3.53c0.97,0.97,2.55,0.97,3.53,0
	C49,87.45,49,85.87,48.03,84.89z M47.09,87.48c-0.45,0.45-1.19,0.45-1.64,0c-0.45-0.45-0.45-1.19,0-1.64c0.45-0.45,1.19-0.45,1.64,0
	C47.54,86.29,47.54,87.02,47.09,87.48z"/>
<path d="M13.03,83.14L8.49,72.28l11.67,1.5L13.03,83.14z M10.76,74.01l2.63,6.29l4.13-5.42L10.76,74.01z"/>
<circle cx="13.89" cy="76.4" r="1.16"/>
<path d="M29.39,67.49c-1.38,0-2.49,1.12-2.49,2.49s1.12,2.49,2.49,2.49c1.38,0,2.49-1.12,2.49-2.49S30.77,67.49,29.39,67.49z
	 M29.39,71.15c-0.64,0-1.16-0.52-1.16-1.16c0-0.64,0.52-1.16,1.16-1.16c0.64,0,1.16,0.52,1.16,1.16
	C30.55,70.63,30.03,71.15,29.39,71.15z"/>
<path d="M8.38,43.99l4.47-10.89l7.19,9.31L8.38,43.99z M13.23,35.94l-2.59,6.3l6.75-0.91L13.23,35.94z"/>
<circle cx="13.75" cy="39.84" r="1.16"/>
<path d="M31.01,44.5c-0.97-0.97-2.55-0.97-3.53,0c-0.97,0.97-0.97,2.55,0,3.53c0.97,0.97,2.55,0.97,3.53,0
	C31.98,47.06,31.98,45.48,31.01,44.5z M30.07,47.09c-0.45,0.45-1.19,0.45-1.64,0c-0.45-0.45-0.45-1.19,0-1.64
	c0.45-0.45,1.19-0.45,1.64,0C30.52,45.9,30.52,46.64,30.07,47.09z"/>
<path d="M42.13,20.16l-9.36-7.13l10.86-4.54L42.13,20.16z M35.6,13.39l5.42,4.13l0.87-6.76L35.6,13.39z"/>
<circle cx="39.5" cy="13.89" r="1.16"/>
<path d="M45.91,26.9c-1.38,0-2.49,1.12-2.49,2.49c0,1.38,1.12,2.49,2.49,2.49c1.38,0,2.49-1.12,2.49-2.49
	C48.41,28.01,47.29,26.9,45.91,26.9z M45.91,30.55c-0.64,0-1.16-0.52-1.16-1.16c0-0.64,0.52-1.16,1.16-1.16
	c0.64,0,1.16,0.52,1.16,1.16C47.07,30.03,46.55,30.55,45.91,30.55z"/>
<path d="M80.35,32.17l-4.62,1.24l-1.24,4.62l3.38,3.38l4.62-1.24l1.24-4.62L80.35,32.17z M80.59,38.27c-0.82,0.82-2.14,0.82-2.96,0
	c-0.82-0.82-0.82-2.14,0-2.96c0.82-0.82,2.14-0.82,2.96,0C81.41,36.13,81.41,37.45,80.59,38.27z"/>
<path d="M87.88,53.17l-4.14,2.39v4.79l4.14,2.39l4.14-2.39v-4.79L87.88,53.17z M87.88,60.04c-1.16,0-2.09-0.94-2.09-2.09
	c0-1.16,0.94-2.09,2.09-2.09c1.16,0,2.09,0.94,2.09,2.09C89.97,59.11,89.03,60.04,87.88,60.04z"/>
<path d="M82.49,75.73l-4.62-1.24l-3.38,3.38l1.24,4.62l4.62,1.24l3.38-3.38L82.49,75.73z M80.59,80.59c-0.82,0.82-2.14,0.82-2.96,0
	c-0.82-0.82-0.82-2.14,0-2.96c0.82-0.82,2.14-0.82,2.96,0C81.41,78.45,81.41,79.77,80.59,80.59z"/>
<path d="M60.34,83.73h-4.79l-2.39,4.14l2.39,4.14h4.79l2.39-4.14L60.34,83.73z M57.95,89.97c-1.16,0-2.09-0.94-2.09-2.09
	c0-1.16,0.94-2.09,2.09-2.09c1.16,0,2.09,0.94,2.09,2.09C60.04,89.03,59.11,89.97,57.95,89.97z"/>
<path d="M38.03,74.49l-4.62,1.24l-1.24,4.62l3.38,3.38l4.62-1.24l1.24-4.62L38.03,74.49z M38.27,80.59c-0.82,0.82-2.14,0.82-2.96,0
	c-0.82-0.82-0.82-2.14,0-2.96c0.82-0.82,2.14-0.82,2.96,0C39.09,78.45,39.09,79.77,38.27,80.59z"/>
<path d="M28.02,53.17l-4.14,2.39v4.79l4.14,2.39l4.14-2.39v-4.79L28.02,53.17z M28.02,60.04c-1.16,0-2.09-0.94-2.09-2.09
	c0-1.16,0.94-2.09,2.09-2.09s2.09,0.94,2.09,2.09C30.12,59.11,29.18,60.04,28.02,60.04z"/>
<path d="M40.17,33.41l-4.62-1.24l-3.38,3.38l1.24,4.62l4.62,1.24l3.38-3.38L40.17,33.41z M38.35,38.35c-0.82,0.82-2.14,0.82-2.96,0
	c-0.01-0.01-0.02-0.03-0.03-0.05c-0.01-0.01-0.03-0.02-0.05-0.03c-0.82-0.82-0.82-2.14,0-2.96c0.82-0.82,2.14-0.82,2.96,0
	c0.01,0.01,0.02,0.03,0.03,0.05c0.01,0.01,0.03,0.02,0.05,0.03C39.16,36.21,39.16,37.53,38.35,38.35z"/>
<path d="M57.95,3.01c30.3,0,54.94,24.65,54.94,54.94s-24.65,54.94-54.94,54.94c-30.3,0-54.94-24.65-54.94-54.94
	S27.65,3.01,57.95,3.01 M57.95,0.26c-31.86,0-57.69,25.83-57.69,57.69s25.83,57.69,57.69,57.69c31.86,0,57.69-25.83,57.69-57.69
	S89.81,0.26,57.95,0.26L57.95,0.26z"/>
<circle class="st0" cx="57.62" cy="57.62" r="19.89"/>
<polyline class="st1" points="57.69,38.97 75.23,67.48 40,67.15 57.69,38.97 "/>
<g>
	<path d="M57.69,38.97l17.53,28.51L40,67.15L57.69,38.97 M57.69,36.23c-0.94,0-1.82,0.49-2.33,1.29L37.68,65.69
		c-0.53,0.84-0.56,1.9-0.08,2.78c0.48,0.87,1.39,1.42,2.38,1.43l35.22,0.34c0.01,0,0.02,0,0.03,0c0.99,0,1.9-0.53,2.39-1.39
		c0.49-0.87,0.47-1.94-0.05-2.79L60.03,37.53c-0.5-0.81-1.38-1.3-2.33-1.31C57.7,36.23,57.7,36.23,57.69,36.23L57.69,36.23z"/>
	<g>
		<path d="M56.24,57.94c-0.3-0.33-0.49-0.77-0.49-1.25c0-0.82,0.53-1.51,1.26-1.76c-1.42-0.4-1.85-0.75-1.85-1.51
			c0-0.67,0.54-1.36,2.16-1.36c1.38,0,2.47,0.56,3.44,1.56l2.18-2.12c-1.43-1.49-3.16-2.38-5.52-2.38c-2.99,0-5.41,1.69-5.41,4.44
			C52.03,56.34,53.73,57.3,56.24,57.94z"/>
		<path d="M58.98,55.43c0.31,0.33,0.5,0.77,0.5,1.26c0,0.81-0.52,1.5-1.25,1.76c1.57,0.47,1.91,0.9,1.91,1.68
			c0,1.15-0.84,1.64-2.64,1.64c-1.45,0-2.81-0.5-3.87-1.73l-2.18,1.95c1.15,1.69,3.35,2.75,5.88,2.75c4.13,0,5.95-1.95,5.95-4.82
			C63.28,56.97,61.15,56,58.98,55.43z"/>
	</g>
</g>
<circle class="st0" cx="57.62" cy="56.76" r="1.86"/>
</svg>
