<?xml version="1.0" encoding="utf-8"?>
<!-- Generator: Adobe Illustrator 28.1.0, SVG Export Plug-In . SVG Version: 6.00 Build 0)  -->
<svg version="1.1" id="Layer_1" xmlns="http://www.w3.org/2000/svg" xmlns:xlink="http://www.w3.org/1999/xlink" x="0px" y="0px"
	 viewBox="0 0 158.92 16.72" style="enable-background:new 0 0 158.92 16.72;" xml:space="preserve">
<style type="text/css">
	.st0{fill:#F16028;}
</style>
<g>
	<rect x="21.98" y="0.44" class="st0" width="3.25" height="16.24"/>
	<path class="st0" d="M12.77,11.76c0-3.53-2.85-4.41-5.43-5.01C6.88,6.64,6.49,6.54,6.14,6.44C5.73,6.33,5.39,6.22,5.12,6.1
		C4.34,5.78,4.08,5.42,4.08,4.8c0-0.72,0.58-1.46,2.32-1.46c1.48,0,2.64,0.6,3.69,1.67l2.34-2.27c-1.53-1.6-3.39-2.55-5.91-2.55
		c-3.2,0-5.8,1.81-5.8,4.75c0,3.2,2.09,4.15,5.08,4.85c2.6,0.59,3.39,1.02,3.57,1.77c0.03,0.13,0.05,0.28,0.05,0.43
		c0,0.08-0.01,0.14-0.02,0.21c-0.1,1.08-1,1.55-2.81,1.55c-1.55,0-3.02-0.53-4.15-1.86l-2.34,2.09c1.23,1.81,3.6,2.95,6.31,2.95
		C10.83,16.93,12.77,14.84,12.77,11.76z"/>
	<path class="st0" d="M91.29,16.67l3.39-16.24h-3.34l-1.18,6.57l-0.24,1.33c-0.02,0.14-0.05,0.3-0.08,0.47
		c-0.12,0.74-0.26,1.65-0.31,2.2c-0.12-0.67-0.37-1.88-0.56-2.67l-1.93-7.91h-2.83L82.71,6.7l-0.4,1.65
		c-0.02,0.1-0.05,0.21-0.07,0.32c-0.18,0.77-0.38,1.76-0.48,2.35c-0.07-0.67-0.25-1.88-0.39-2.67l-1.42-7.91h-3.39l3.39,16.24h3.04
		l2.04-8.35c0.23-0.95,0.46-2.18,0.53-2.78c0.09,0.6,0.32,1.81,0.56,2.78l0.07,0.3l0.62,2.6l1.3,5.45H91.29z"/>
	<polygon class="st0" points="136.21,13.47 130.06,13.47 129.06,13.47 128.06,13.47 128.06,0.44 124.82,0.44 124.82,16.67 
		136.21,16.67 	"/>
	<path class="st0" d="M48.32,8.56c0-5.94-3.43-8.12-8.07-8.12h-5.08v16.24h4.85C44.19,16.67,48.32,14.26,48.32,8.56z M38.42,3.59
		h1.72c2.03,0,3.34,0.59,4.09,1.75c0.12,0.19,0.23,0.41,0.32,0.63c0.29,0.71,0.44,1.55,0.44,2.58c0,2.84-1.45,4.77-4.56,4.93
		c-0.14,0.01-0.26,0.03-0.4,0.03h-0.6h-1V3.59z"/>
	<path class="st0" d="M116.26,16.67l-6.17-16.24h-3.15l-6.22,16.24h3.48l1.28-3.62h5.94l0.35,1l0.35,1l0.57,1.62H116.26z
		 M109.3,9.97h-1.35h-1.35l1.04-2.95c0.32-0.95,0.65-1.92,0.81-2.53c0.14,0.51,0.39,1.29,0.67,2.1c0.05,0.14,0.1,0.29,0.15,0.43
		l0.54,1.52l0.51,1.43H109.3z"/>
	<polygon class="st0" points="68.73,13.5 62.35,13.5 61.35,13.5 60.35,13.5 60.35,9.58 65.02,9.58 65.02,6.42 62.35,6.42 
		61.35,6.42 60.35,6.42 60.35,3.62 68.38,3.62 68.38,0.44 57.11,0.44 57.11,16.67 68.73,16.67 	"/>
	<path class="st0" d="M158.88,16.67l-5.96-10.62l4.76-5.61h-3.92l-3.78,4.6l-0.77,0.94c-0.07,0.09-0.15,0.19-0.23,0.28
		c-0.4,0.49-0.85,1.06-1.05,1.37c0.02-0.51,0.05-1.97,0.05-2.58V0.44h-3.25v16.24h3.25V11.9l2.6-3.06l0.74,1.31l0.74,1.31l2.93,5.22
		H158.88z"/>
</g>
</svg>
